# xmcd
#
# Track frame offsets:
#	150
#	20850
#	39562
#	56962
#	71842
#	86992
#	101857
#	121432
#
# Disc length: 1856 seconds
# Revision: 0
# Processed by: cddbd v1.5.2PL0 Copyright (c) Steve Scherf et al.
# Submitted via: dBpowerAMP V12.0
#
DISCID=7d073e08
DTITLE=The Black Sorrows - Crooked Little Thoughts
DYEAR=2012
DGENRE=Blues
TTITLE0=Money Talkin
TTITLE1=Our Town
TTITLE2=Shelley
TTITLE3=Lovin You
TTITLE4=Waitin For The Hammer
TTITLE5=Salvation Song
TTITLE6=Lost In Wonder
TTITLE7=Somewhere In This World
EXTD=
EXTT0=
EXTT1=
EXTT2=
EXTT3=
EXTT4=
EXTT5=
EXTT6=
EXTT7=
PLAYORDER=
